<?xml version="1.0" encoding="utf-8"?>
<!-- Generator: Adobe Illustrator 17.1.0, SVG Export Plug-In . SVG Version: 6.00 Build 0)  -->
<!DOCTYPE svg PUBLIC "-//W3C//DTD SVG 1.1//EN" "http://www.w3.org/Graphics/SVG/1.1/DTD/svg11.dtd">
<svg version="1.1" id="Layer_1" xmlns="http://www.w3.org/2000/svg" xmlns:xlink="http://www.w3.org/1999/xlink" x="0px" y="0px"
	 viewBox="0 0 396.7 170" enable-background="new 0 0 396.7 170" xml:space="preserve">
<g>
	<path fill="#FFFFFF" d="M317.1,1.3v52c-4-11.2-10.4-21.1-18.9-29.2c-7.7-7.3-16.8-13-27.3-16.9c-10.6-4-22.3-6-34.8-6l-72.2,0v52.3
		c-4.2-10.6-10.6-20.3-18.9-28.6C129,8.8,107.7,0,85,0C62.3,0,41,8.8,24.9,24.9C8.8,41,0,62.3,0,85c0,22.7,8.8,44,24.9,60.1
		C41,161.2,62.3,170,85,170c22.7,0,44-8.8,60.1-24.9c8.3-8.3,14.6-18,18.9-28.6v52.1l72.2,0c12.5,0,24.2-2,34.8-6
		c10.4-3.9,19.6-9.6,27.3-16.9c8.5-8.1,14.8-18,18.9-29.2v52.2h79.6V1.3H317.1z"/>
	<g>
		<path fill="#222222" d="M110.5,61h10.9l7.7,32.5h0.1l7.6-32.5h10.7v43.8h-6.6V68.3h-0.1l-8.8,36.5h-5.9l-8.8-36.5h-0.1v36.5h-6.6
			V61z"/>
		<path fill="#222222" d="M159.8,89.2v1.9c0,4.4,0.6,10.1,5.5,10.1c4.7,0,5.3-5.3,5.3-7.4h6.3c0,7.4-4.4,11.9-11.6,11.9
			c-5.4,0-12.1-1.6-12.1-16.9c0-8.7,1.9-17.9,12.2-17.9c9.2,0,11.7,5.6,11.7,14.7v3.5H159.8z M170.4,84.6v-1.8
			c0-4.2-1.4-7.4-5.1-7.4c-4.2,0-5.5,4.2-5.5,8.5v0.7H170.4z"/>
		<path fill="#222222" d="M180.4,71.8h4.5v-9.4h6.6v9.4h5.4v4.9h-5.4v19.7c0,2.6,0.7,3.5,3,3.5c1,0,1.8-0.1,2.4-0.2v4.9
			c-1.4,0.4-3.2,0.6-5.3,0.6c-4.4,0-6.7-1.3-6.7-8V76.7h-4.5V71.8z"/>
		<path fill="#222222" d="M202,71.8h6.6v5.2h0.1c1.5-3.7,3.9-6,7.7-6c0.7,0,1.2,0.1,1.6,0.2v6.8c-0.5-0.2-1.6-0.4-2.8-0.4
			c-3,0-6.6,1.4-6.6,7.5v19.8H202V71.8z"/>
		<path fill="#222222" d="M222.5,60.5h6.6v6.6h-6.6V60.5z M222.5,71.8h6.6v33h-6.6V71.8z"/>
		<path fill="#222222" d="M259.1,92.8c-0.5,7.9-3.1,12.9-11.3,12.9c-9.6,0-12.3-7.1-12.3-17.4c0-10.3,2.7-17.4,12.3-17.4
			c9.8-0.2,11.4,7.8,11.4,11.8h-6.6c0-3.1-0.8-7.1-4.7-6.9c-4.7,0-5.6,5.2-5.6,12.5c0,7.3,0.9,12.5,5.6,12.5c3.7,0.1,5-3,5-8H259.1z
			"/>
		<path fill="#222222" d="M279.2,81.4v-0.9c0-2.6-0.9-5.1-4.4-5.1c-2.6,0-4.7,1.2-4.7,4.3c0,2.6,1.2,3.6,4.7,4.9l4.2,1.5
			c4.9,1.7,7.2,4.3,7.2,9.5c0,7.1-5.2,10.1-11.9,10.1c-8.3,0-10.9-3.9-10.9-10.3v-1.2h5.9v1c0,3.9,1.3,5.9,5.2,5.9
			c3.7,0,5.4-1.8,5.4-4.9c0-2.4-1.2-4.1-3.6-4.9l-5.4-1.9c-5-1.7-7.1-4.2-7.1-9.5c0-6.2,4.4-9.1,11.3-9.1c8.4,0,10.3,4.9,10.3,9v1.5
			H279.2z"/>
	</g>
</g>
</svg>
