<?xml version="1.0" encoding="utf-8"?>
<!-- Generator: Adobe Illustrator 19.2.0, SVG Export Plug-In . SVG Version: 6.00 Build 0)  -->
<svg version="1.1" id="Layer_1" xmlns="http://www.w3.org/2000/svg" xmlns:xlink="http://www.w3.org/1999/xlink" x="0px" y="0px"
	 viewBox="0 0 880 165" style="enable-background:new 0 0 880 165;" xml:space="preserve">
<style type="text/css">
	.st0{fill:#FFFFFF;}
	.st1{opacity:0.7;fill:#FFFFFF;enable-background:new    ;}
	.st2{opacity:0.85;fill:#FFFFFF;enable-background:new    ;}
</style>
<polygon class="st0" points="595.9,143.7 595.9,142.4 593.9,143.7 "/>
<polygon class="st0" points="582.2,143.7 595.9,134.6 595.9,131.4 577.1,143.7 "/>
<polygon class="st0" points="565.2,143.7 595.9,123.5 595.9,120.3 560.2,143.7 "/>
<polygon class="st0" points="548.2,143.7 592.4,114.7 587.2,114.7 543.2,143.7 "/>
<polygon class="st0" points="531.3,143.7 575.4,114.7 570.2,114.7 526.3,143.7 "/>
<path class="st0" d="M512.1,141.7v1.9h2.2c0.5-0.4,1.2-0.8,1.7-1.2l42.4-27.8h-5l-38.8,25.5C513.7,140.7,512.9,141.2,512.1,141.7z"
	/>
<polygon class="st0" points="512.1,134 547.5,110.8 547.5,107.4 512.1,130.6 "/>
<polygon class="st0" points="579.3,90 590.3,82.7 590.3,79.5 574.3,90 "/>
<path class="st0" d="M478.9,143.7c0.9-0.5,1.8-1,2.8-1.7v-3.2c-2.8,1.7-5.6,3.2-8.4,4.9H478.9z"/>
<polygon class="st0" points="562.4,90 590.3,71.6 590.3,68.4 557.3,90 "/>
<polygon class="st0" points="512.1,122.8 547.5,99.7 547.5,96.3 512.1,119.5 "/>
<polygon class="st0" points="512.1,111.7 590.3,60.6 590.3,60.2 585.8,60.2 512.1,108.4 "/>
<path class="st0" d="M464.7,141.1c5.7-3.2,11.4-6.5,17.1-10v-3.2c-6.3,3.9-12.7,7.5-19,11.1L464.7,141.1z"/>
<path class="st0" d="M457.9,134.4c8-4.5,15.9-9.2,23.8-14v-3.2c-8.5,5.3-17.2,10.4-25.9,15.3L457.9,134.4z"/>
<polygon class="st0" points="512.1,100.6 573.9,60.2 568.8,60.2 512.1,97.4 "/>
<polygon class="st0" points="590.3,38.2 595.9,34.7 595.9,31.4 585.3,38.2 "/>
<polygon class="st0" points="512.1,89.6 556.9,60.2 551.9,60.2 512.1,86.2 "/>
<path class="st0" d="M451.2,127.6c10.2-5.7,20.4-11.8,30.5-18.2V106c-10.7,6.9-21.6,13.3-32.6,19.4L451.2,127.6z"/>
<polygon class="st0" points="512.1,78.5 547.5,55.3 547.5,51.9 512.1,75.1 "/>
<path class="st0" d="M399.7,143.7c1.3-0.6,2.6-1.2,3.9-1.8v-3.1c-3.5,1.7-7.1,3.4-10.6,4.9L399.7,143.7L399.7,143.7z"/>
<path class="st0" d="M444.5,120.8c12.6-7,25-14.5,37.3-22.5v-3.4c-12.9,8.4-26.1,16.3-39.3,23.7L444.5,120.8z"/>
<polygon class="st0" points="573.5,38.2 595.9,23.6 595.9,20.2 568.3,38.2 "/>
<polygon class="st0" points="512.1,67.3 547.5,44.2 547.5,40.8 512.1,64 "/>
<path class="st0" d="M378.1,143.7c8.5-3.8,17.1-7.6,25.6-11.8v-3.1c-10.9,5.3-21.7,10.4-32.6,14.9H378.1z"/>
<path class="st0" d="M435.7,112l2.1,2.1c14.4-8,28.6-16.7,42.7-25.9l1.3-0.9v-3.4l-2.8,1.8C464.7,95.2,450.2,103.8,435.7,112z"/>
<polygon class="st0" points="556.5,38.2 595.9,12.5 595.9,9.1 551.4,38.2 "/>
<path class="st0" d="M368.3,138.2c11.8-5,23.5-10.6,35.3-16.6v-3.1c-11.8,6-23.5,11.5-35.3,16.6V138.2z"/>
<path class="st0" d="M428.9,105.2l2.1,2.1c14.9-8.4,29.8-17.3,44.4-26.9l6.5-4.3v-3.4l-7.9,5.2C459,87.8,444,96.8,428.9,105.2z"/>
<polygon class="st0" points="512.1,52.8 512.1,56.2 584.2,9 579,9 "/>
<polygon class="st0" points="562.1,9 512.1,41.7 512.1,45.1 567.3,9 "/>
<path class="st0" d="M368.3,128.7c11.8-5.3,23.5-11,35.3-17.1v-3.1c-11.8,6.1-23.5,11.9-35.3,17.2V128.7z"/>
<path class="st0" d="M332.3,143.7c1.9-0.8,4-1.6,6-2.3v-3c-4.7,1.8-9.3,3.6-13.8,5.3H332.3z"/>
<path class="st0" d="M422.2,98.5l2.1,2.1c15.5-8.7,30.8-18,46.1-27.9l11.5-7.5v-3.4l-13.2,8.5C453.4,80.3,437.7,89.7,422.2,98.5z"/>
<path class="st0" d="M302.9,143.7h5.3c10-3.5,19.9-7.4,30-11.5v-3c-11.8,4.9-23.7,9.3-35.3,13.5L302.9,143.7L302.9,143.7z"/>
<polygon class="st0" points="545.3,9 512.1,30.7 512.1,34 550.3,9 "/>
<path class="st0" d="M415.4,91.7l2.1,2.1c16-8.9,32-18.6,47.6-29l16.6-10.9v-3.4l-18.1,11.9C447.7,72.9,431.7,82.6,415.4,91.7z"/>
<path class="st0" d="M368.3,119c11.8-5.6,23.5-11.4,35.3-17.7v-3.1c-11.8,6.3-23.5,12.3-35.3,17.7V119z"/>
<path class="st0" d="M302.9,136.8c11.8-4.3,23.5-8.9,35.3-14v-3c-11.8,5-23.7,9.8-35.3,14.1V136.8z"/>
<path class="st0" d="M368.3,109.1c11.8-5.7,23.5-11.8,35.3-18.2v-3.2c-11.8,6.5-23.5,12.6-35.3,18.2V109.1z"/>
<path class="st0" d="M440.2,66.4c-10.5,6.5-21,12.7-31.6,18.5l2.1,2.1c10.5-6,21.1-12.2,31.4-18.6L440.2,66.4z"/>
<polygon class="st0" points="528.3,9 512.1,19.6 512.1,22.8 533.4,9 "/>
<path class="st0" d="M446.4,62.5v3.2c4.5-2.8,9.2-5.8,13.7-8.8l21.7-14.2v-3.4l-23.4,15.4C454.4,57.4,450.4,60,446.4,62.5z"/>
<path class="st0" d="M302.9,128c11.8-4.5,23.5-9.4,35.3-14.6v-3.1c-11.8,5.3-23.7,10.2-35.3,14.8V128z"/>
<path class="st0" d="M433.5,59.7c-21.6,13.3-43.3,25.5-65.2,36.5v3.1c11.8-5.8,23.5-12.2,35.3-18.8V80l0.4,0.4
	c10.5-6,21-12.2,31.4-18.6L433.5,59.7z"/>
<path class="st0" d="M446.4,51.5v3.4c2.8-1.8,5.7-3.6,8.5-5.6l26.8-17.6v-3.4L453.4,47C451.1,48.4,448.7,50,446.4,51.5z"/>
<polygon class="st0" points="512.1,9 512.1,11.8 516.4,9 "/>
<path class="st0" d="M302.9,119.1c11.8-4.8,23.5-9.8,35.3-15.4v-3.1c-11.8,5.6-23.7,10.6-35.3,15.4V119.1z"/>
<path class="st0" d="M426.7,53c-19.4,11.9-38.9,23-58.4,33.1v3.1c20.2-10.4,40.4-21.7,60.4-34.2L426.7,53z"/>
<path class="st0" d="M446.4,40.4v3.4c1.2-0.8,2.3-1.6,3.5-2.2l31.8-21v-3.4l-33.4,22C447.7,39.6,447.1,40,446.4,40.4z"/>
<polygon class="st0" points="446.4,32.7 481.7,9.5 481.7,9 477.5,9 446.4,29.4 "/>
<path class="st0" d="M202.1,143.7c16.2-3.9,32.7-8.5,49.6-14.2c1.9-1.6,3.8-3.1,5.6-4.8c-23.3,8-45.9,14.4-67.9,19H202.1z"/>
<path class="st0" d="M420,46.2c-17.2,10.6-34.4,20.4-51.6,29.6V79c17.9-9.4,35.8-19.8,53.7-30.8L420,46.2z"/>
<path class="st0" d="M302.9,110c11.8-4.9,23.5-10.2,35.3-15.9V91c-11.9,5.7-23.7,11-35.3,16V110z"/>
<path class="st0" d="M413.2,39.5c-15,9.2-29.9,17.9-44.9,26v3.1c15.7-8.5,31.3-17.6,47-27.2L413.2,39.5z"/>
<polygon class="st0" points="460.5,9 446.4,18.3 446.4,21.5 465.6,9 "/>
<path class="st0" d="M302.9,100.8c11.8-5.2,23.5-10.7,35.3-16.6v-3.1c-11.9,6-23.7,11.5-35.3,16.7V100.8z"/>
<path class="st0" d="M160.5,142.9v0.8h11.3c29.4-5.8,60.4-14.9,92.5-26.9c1-1.3,1.9-2.7,2.8-4c-34.2,13.1-67.4,22.9-98.5,28.9
	C165.9,142,163.2,142.4,160.5,142.9z"/>
<path class="st0" d="M38.8,135.7c0.4,0.3,0.9,0.4,1.3,0.6c5.4,2.3,11.1,4.4,17.3,6c4.3,0.8,8.7,1.3,13.1,1.3c2.6,0,5.2-0.1,7.8-0.5
	c-4.7-0.4-9.2-1-13.5-1.7C55.3,140.3,46.6,138.4,38.8,135.7z"/>
<polygon class="st0" points="446.4,9 446.4,10.5 448.6,9 "/>
<path class="st0" d="M160.5,136.8v2.8c1.7-0.4,3.4-0.6,5-1c33.3-7,68.8-18.4,105.7-33.4c0.5-1.2,1.2-2.5,1.6-3.6
	c-37.7,15.5-74,27.2-107.8,34.3C163.4,136.3,162,136.6,160.5,136.8z"/>
<path class="st0" d="M406.4,32.8c-12.7,7.8-25.5,15.3-38.2,22.4v3.2c13.5-7.5,26.8-15.3,40.2-23.5L406.4,32.8z"/>
<path class="st0" d="M302.9,91.5c11.8-5.4,23.5-11.1,35.3-17.2v-3.1c-11.9,6.1-23.7,11.8-35.3,17.2V91.5z"/>
<path class="st0" d="M57.5,142.4c-6.2-1.7-11.9-3.6-17.3-6C45.4,139.1,51.2,141.1,57.5,142.4z"/>
<path class="st0" d="M160.5,130.6v2.8c0.5-0.1,0.9-0.3,1.4-0.3c35.3-8.2,73.6-21.2,113.2-38.4c0.3-1.2,0.6-2.3,0.9-3.4
	c-40.2,17.6-78.9,30.9-114.8,39.2C161.1,130.5,160.8,130.6,160.5,130.6z"/>
<path class="st0" d="M399.7,26.1c-10.5,6.5-21,12.7-31.4,18.6v3.2c11.1-6.3,22.3-12.9,33.5-19.8L399.7,26.1z"/>
<path class="st0" d="M302.9,82.1c11.8-5.6,23.5-11.5,35.3-17.7v-3.1c-11.9,6.2-23.7,12.2-35.3,17.9V82.1z"/>
<path class="st0" d="M64.2,138.6c-10.2-0.9-19.5-2.6-27.8-5.3c8.4,3.6,17.9,6.5,28.5,8.2c5.3,0.6,11,1,16.8,1.2
	c3.8-0.6,7.4-1.6,10.9-2.7C82.3,140.2,72.9,139.7,64.2,138.6z"/>
<path class="st0" d="M36.4,133.3c-1.2-0.4-2.5-0.8-3.6-1.3c1.9,1.3,3.9,2.6,6.1,3.6c7.8,2.7,16.6,4.7,26,5.8
	C54.2,139.7,44.8,136.9,36.4,133.3z"/>
<path class="st0" d="M56.9,134.9c-8.8-0.8-16.8-2.2-23.9-4.4c8.9,3.9,19.4,6.6,31.1,8.2c4.9,0.4,10,0.6,15.1,0.6
	c5.4,0,11-0.3,16.8-0.6c2.6-1,5-2.3,7.5-3.6C86.2,136.7,70.5,136.7,56.9,134.9z"/>
<path class="st0" d="M211.6,108.5c-17.6,6.2-34.7,11.5-51.1,15.8v3.1c35.5-9.2,74.9-23.5,116.7-42.6c0.1-1.2,0.3-2.2,0.4-3.4
	c-15.9,7.2-31.4,13.8-46.8,19.8C225.4,105.5,218.8,108.2,211.6,108.5z"/>
<path class="st0" d="M393,19.3c-8.3,5-16.4,10-24.7,14.8v3.2c8.9-5.2,17.7-10.5,26.8-16L393,19.3z"/>
<path class="st0" d="M302.9,72.5c11.6-5.8,23.4-11.9,35.3-18.4v-3.2c-11.9,6.5-23.7,12.6-35.3,18.4V72.5z"/>
<path class="st0" d="M64.2,138.6c-11.8-1.6-22.1-4.3-31.1-8.2c-1.6-0.5-3-1-4.4-1.6c0.6,0.5,1.4,1.2,2.2,1.7
	c1.8,0.9,3.6,1.8,5.6,2.7C44.6,136,54,137.7,64.2,138.6z"/>
<path class="st0" d="M30.8,130.6c0.6,0.5,1.3,0.9,1.9,1.4c1.2,0.4,2.3,0.9,3.6,1.3C34.4,132.4,32.6,131.5,30.8,130.6z"/>
<path class="st0" d="M302.9,62.7c11.6-6,23.5-12.3,35.3-18.8v-3.2c-11.9,6.6-23.7,12.9-35.3,18.9V62.7z"/>
<path class="st0" d="M386.2,12.6c-6,3.8-12,7.4-18,10.9v3.2c6.6-3.9,13.3-8,20.1-12L386.2,12.6z"/>
<path class="st0" d="M238,93c13.1-5.4,26.3-11.4,39.7-17.9c0-1,0-2.1-0.1-3c-12.7,6.1-25.2,11.8-37.7,17
	C239.4,90.4,238.7,91.7,238,93z"/>
<path class="st0" d="M53.1,131.8c-8.3-0.5-15.8-1.8-22.5-3.8c7.6,3.2,16.4,5.4,26.4,6.9c4.4,0.4,8.9,0.5,13.6,0.5
	c11.3,0,23.7-1,37.1-3.1c1.7-1.2,3.4-2.3,4.9-3.6C89.7,132.7,69.7,133.7,53.1,131.8z"/>
<path class="st0" d="M195.7,108.5v-2.1c-12,4.3-23.8,8-35.2,11.4v2.8c12.2-3.5,24.7-7.5,37.5-12.2H195.7z"/>
<path class="st0" d="M56.9,134.9c-10-1.3-18.8-3.6-26.4-6.9c-1.7-0.5-3.4-1-4.9-1.6c0.4,0.3,0.8,0.6,1,0.9c1.9,1,4,2.1,6.2,3
	C40.1,132.7,48.1,134.2,56.9,134.9z"/>
<path class="st0" d="M26.8,127.5c0.6,0.5,1.2,1,1.8,1.4c1.4,0.5,3,1,4.4,1.6C30.9,129.6,28.9,128.5,26.8,127.5z"/>
<path class="st0" d="M195.7,98.6c-12,4.5-23.8,8.7-35.2,12.3v3c11.4-3.6,23.2-7.6,35.2-12.2V98.6z"/>
<path class="st0" d="M374.5,9c-2.1,1.3-4.1,2.5-6.2,3.8V16c3.9-2.3,7.6-4.7,11.5-7H374.5z"/>
<path class="st0" d="M302.9,52.8c11.6-6.1,23.5-12.6,35.3-19.3v-3.2c-11.9,6.7-23.7,13.2-35.3,19.4V52.8z"/>
<path class="st0" d="M242,82.5c11.5-5.2,23.2-10.6,34.9-16.4c-0.1-0.9-0.3-1.9-0.5-2.8c-11.5,5.7-22.8,11-34,16
	C242.4,80.3,242.2,81.4,242,82.5z"/>
<path class="st0" d="M49.7,128.9c-8-0.3-15.1-1.3-21.5-3c7.2,2.8,15.5,4.9,24.8,6c3.1,0.1,6.2,0.3,9.4,0.3c15.5,0,33.5-2.2,53.8-6.5
	c1.3-1.2,2.5-2.3,3.6-3.6C92.3,128.3,68.6,130.6,49.7,128.9z"/>
<path class="st0" d="M53.1,131.8c-9.3-1-17.7-3.1-24.8-6c-1.7-0.4-3.2-0.9-4.8-1.4c0.3,0.3,0.4,0.4,0.6,0.6c2.1,1.2,4.3,2.2,6.5,3.1
	C37.3,130.1,44.8,131.3,53.1,131.8z"/>
<path class="st0" d="M24.1,125c0.5,0.5,1,1,1.7,1.6c1.6,0.5,3.2,1.2,4.9,1.6C28.3,127.2,26.1,126.2,24.1,125z"/>
<path class="st0" d="M302.9,42.9c11.6-6.3,23.5-12.9,35.3-19.8v-3.2c-11.9,6.9-23.7,13.5-35.3,19.8V42.9z"/>
<path class="st0" d="M195.7,90.8c-12,4.9-23.8,9.3-35.2,13.2v3c11.4-3.9,23.2-8.3,35.2-13.2V90.8z"/>
<path class="st0" d="M45.9,125.9c-7.4-0.1-14.1-0.8-19.9-2.2c6.7,2.6,14.8,4.3,23.7,5.2c1.7,0,3.5,0.1,5.2,0.1
	c18.8,0,41.7-3.5,68.2-10.6c0.9-1.2,1.8-2.3,2.7-3.6C93.6,123.6,66.6,127.4,45.9,125.9z"/>
<path class="st0" d="M242.4,73.4c10.7-5,21.6-10.4,32.6-15.9c-0.3-0.9-0.5-1.8-0.9-2.7c-10.9,5.6-21.6,10.7-32.2,15.8
	C242.1,71.5,242.2,72.4,242.4,73.4z"/>
<path class="st0" d="M49.7,128.9c-8.9-0.8-16.8-2.5-23.7-5.2c-1.6-0.4-3-0.8-4.4-1.2c0.1,0.1,0.3,0.4,0.5,0.5c1.9,1,4,1.9,6.1,2.8
	C34.6,127.6,41.7,128.5,49.7,128.9z"/>
<path class="st0" d="M22.1,123.1c0.4,0.5,0.9,0.9,1.3,1.4c1.6,0.5,3.1,1,4.8,1.4C26.1,125,24.1,124.1,22.1,123.1z"/>
<path class="st0" d="M24.5,27.5c-10,9.6-17.1,22.1-19.8,36.2c0.5-1,1-2.1,1.6-3.2C10.4,50.4,16.4,39.4,24.5,27.5z"/>
<path class="st0" d="M195.7,82.6c-12,5.2-23.8,9.8-35.2,14.1v3c11.4-4.3,23.2-8.9,35.2-14.1V82.6z"/>
<path class="st0" d="M302.9,32.8c11.6-6.5,23.5-13.2,35.3-20.2V9.4c-11.9,7-23.7,13.8-35.3,20.3V32.8z"/>
<path class="st0" d="M240.4,65.3c10.4-5,21-10.4,31.6-15.9c-0.4-0.9-0.8-1.7-1.2-2.6c-10.6,5.6-21.2,10.9-31.6,15.9
	C239.8,63.5,240.2,64.4,240.4,65.3z"/>
<path class="st0" d="M40.9,123.1c-0.1,0-0.3,0-0.4,0c-6.3,0-12-0.5-17.2-1.7c6.3,2.3,14,3.9,22.5,4.4c0.5,0,1,0,1.7,0
	c21.1,0,48.4-5,80.7-15.1c0.6-1.2,1.3-2.3,1.9-3.5C93.2,119.1,63,124.4,40.9,123.1z"/>
<path class="st0" d="M45.9,125.9c-8.7-0.6-16.2-2.1-22.5-4.4c-1.2-0.3-2.3-0.5-3.4-0.9c0.1,0.3,0.4,0.4,0.5,0.6
	c1.7,0.9,3.6,1.7,5.6,2.5C31.8,125.2,38.6,125.8,45.9,125.9z"/>
<path class="st0" d="M20.6,121.3c0.4,0.4,0.8,0.8,1.2,1.2c1.4,0.4,2.8,0.9,4.4,1.2C24.1,123,22.3,122.2,20.6,121.3z"/>
<path class="st0" d="M37.5,17.8c-2.6,1.4-4.9,3-7.2,4.8C19.8,36.4,11.7,49.1,6.2,60.5c-0.6,1.4-1.2,2.8-1.7,4.3
	c-0.4,2.6-0.8,5.2-0.9,7.9c1-2.5,2.3-5,3.8-7.8C13.5,51.3,23.6,35.4,37.5,17.8z"/>
<path class="st0" d="M302.9,19.2v3.4c7.8-4.4,15.5-8.9,23.4-13.6h-5.6C314.8,12.5,308.9,16,302.9,19.2z"/>
<path class="st0" d="M195.7,74.1c-12.2,5.4-23.8,10.5-35.2,15v3.2c11.3-4.5,23-9.6,35.2-15V74.1z"/>
<path class="st0" d="M236.5,58c10.4-5.2,20.8-10.6,31.6-16.3c-0.5-0.9-1-1.7-1.6-2.5c-10.9,5.7-21.5,11.3-32,16.4
	C235.2,56.5,235.9,57.2,236.5,58z"/>
<path class="st0" d="M33.9,120.5c-4.8,0-9.1-0.4-12.9-1c5.6,1.9,12.3,3.2,19.9,3.6c23-0.1,54.3-7.1,91.5-20.1c0.5-1.2,1-2.5,1.4-3.8
	c-38.3,13.7-70.5,21.1-93.7,21.1C38,120.5,36,120.5,33.9,120.5z"/>
<path class="st0" d="M40.5,123.1c0.1,0,0.3,0,0.4,0c-7.6-0.4-14.2-1.7-19.9-3.6c-0.9-0.1-1.7-0.4-2.6-0.5c0.3,0.3,0.4,0.5,0.6,0.8
	c1.3,0.6,2.7,1.3,4.3,1.8C28.5,122.6,34.2,123.1,40.5,123.1z"/>
<path class="st0" d="M4.7,63.7c-0.1,0.4-0.1,0.8-0.3,1.2c0.5-1.4,1-2.8,1.7-4.3C5.6,61.5,5.1,62.7,4.7,63.7z"/>
<path class="st0" d="M19.2,119.7c0.3,0.3,0.5,0.6,0.8,0.9c1.2,0.3,2.2,0.6,3.4,0.9C21.9,121,20.5,120.4,19.2,119.7z"/>
<path class="st0" d="M302.9,9v3.2c1.8-1,3.8-2.2,5.6-3.2H302.9z"/>
<path class="st0" d="M195.7,65.8c-12.2,5.7-23.8,11.1-35.2,15.9v3.2c11.3-4.8,23-10.1,35.2-15.9V65.8z"/>
<path class="st0" d="M230.6,51.8c10.6-5.4,21.5-11.3,32.6-17.2c-0.6-0.8-1.3-1.6-1.9-2.3c-11.4,6.1-22.5,12-33.4,17.6
	C228.9,50.5,229.7,51,230.6,51.8z"/>
<path class="st0" d="M48.9,12.6C47,13.2,45,14,43.2,14.8c-16.4,18.9-28.5,35.7-36,50.1c-1.4,3.2-2.7,6.3-3.8,9.4c0,0.6,0,1.4,0,2.1
	c0,0.9,0,1.7,0,2.6c1-2.3,2.2-4.8,3.5-7.2C14.5,55.4,28.6,35.5,48.9,12.6z"/>
<path class="st0" d="M28,118.4c-2.6,0-5.2-0.1-7.5-0.4c5.6,1.6,12.2,2.3,19.7,2.3c23.7-1.3,56.2-10.1,95-25.1
	c0.4-1.2,0.6-2.3,0.9-3.5c-40.2,15.8-73.6,24.8-97.3,26C35.1,118.2,31.4,118.4,28,118.4z"/>
<path class="st0" d="M33.9,120.5c1.9,0,4,0,6.2-0.1c-7.5,0-14.1-0.8-19.7-2.3c-1-0.1-2.1-0.3-3.1-0.5c0.1,0.3,0.4,0.5,0.5,0.8
	c1,0.4,2.1,0.9,3.1,1.2C24.9,120.3,29.2,120.5,33.9,120.5z"/>
<path class="st0" d="M3.5,72.6c0,0.5,0,1.2,0,1.7c1-3,2.3-6.1,3.8-9.4C5.8,67.6,4.5,70.2,3.5,72.6z"/>
<path class="st0" d="M18,118.3c0.1,0.3,0.4,0.5,0.5,0.6c0.8,0.1,1.7,0.4,2.6,0.5C19.9,119.1,18.9,118.7,18,118.3z"/>
<path class="st0" d="M222.2,46.9c11.5-6,23.2-12.3,35.1-18.9c-0.8-0.6-1.4-1.4-2.2-2.1c-12.6,6.9-24.8,13.5-36.7,19.7
	C219.6,46,221,46.4,222.2,46.9z"/>
<path class="st0" d="M70.5,108.5c-12.4,3.5-23.4,5.7-32.9,6.7c-5.7,0.9-10.6,1.3-14.8,1.3c-1.4,0-2.8,0-4.1-0.1
	c5.6,1.4,12.3,1.8,20.1,1.4c29.2-3.1,67.9-17.6,94.6-28.6c1.2-0.5,2.3-1,3.5-1.6c0.1-1.2,0.4-2.3,0.5-3.5
	c-17.7,7.5-34.2,13.8-48.9,18.8C83.3,106.4,77.1,108.5,70.5,108.5z"/>
<path class="st0" d="M59.4,9.9c-1.7,0.3-3.2,0.6-4.9,1C32.4,34.2,16.1,54.9,7,71.7c-1.4,3-2.6,6-3.5,8.7c0,1,0.1,2.2,0.3,3.2
	c0.9-1.8,1.8-3.8,2.8-5.6C15.1,60.1,33.4,36.7,59.4,9.9z"/>
<path class="st0" d="M195.7,57.1c-12.2,6.1-23.8,11.6-35.2,16.8v3.2c11.4-5.2,23.2-10.7,35.2-16.8V57.1z"/>
<path class="st0" d="M3.5,79.1c0,0.5,0,0.9,0,1.4c0.9-2.7,2.1-5.7,3.5-8.7C5.7,74.3,4.5,76.7,3.5,79.1z"/>
<path class="st0" d="M28,118.4c3.4,0,7-0.3,10.7-0.6c-7.8,0.4-14.5-0.1-20.1-1.4c-0.9-0.1-1.7-0.1-2.6-0.3c0.1,0.3,0.3,0.5,0.5,0.6
	c1.2,0.5,2.5,0.9,3.8,1.3C22.9,118.3,25.4,118.4,28,118.4z"/>
<path class="st0" d="M16.7,116.8c0.3,0.3,0.4,0.5,0.6,0.8c1,0.1,2.1,0.4,3.1,0.5C19.2,117.7,18,117.2,16.7,116.8z"/>
<path class="st0" d="M195.7,48.4c-12.2,6.3-23.8,12.2-35.2,17.7v3.2c11.4-5.4,23.2-11.4,35.2-17.6V48.4z"/>
<path class="st0" d="M6.6,78.1c-1,2.3-1.9,4.5-2.7,6.6c0.1,0.9,0.3,1.8,0.4,2.7c0.9-1.8,1.9-3.6,3.1-5.7
	c9.4-18.4,30.9-43.5,61.3-72.6c-1.4,0-2.8,0.1-4.1,0.3C36.6,36.4,16.7,60,6.6,78.1z"/>
<path class="st0" d="M93.4,98.8c10.9-4.1,22.9-9.2,36.4-15.1c2.6-1.2,5.3-2.3,7.9-3.6c0-1,0.1-2.2,0.1-3.2
	c-14.5,6.6-28.1,12.4-40.6,17.3C96.1,95.8,94.9,97.4,93.4,98.8z"/>
<path class="st0" d="M209,44.7c13.5-7.1,27.2-14.8,41.3-22.6c-0.9-0.6-1.7-1.3-2.6-1.8c-15.4,8.7-30.4,16.8-44.9,24.5H209z"/>
<path class="st0" d="M60.6,106.8c-10.5,3.1-19.8,5.2-27.7,6.2c-5.6,1-10.6,1.7-15,1.7c-0.5,0-1,0-1.4,0c5.7,1.3,12.8,1.4,21.2,0.5
	c7.9-1.3,17.3-3.5,28.7-7C64.4,107.8,62.5,107.4,60.6,106.8z"/>
<path class="st0" d="M3.8,83.6c0,0.4,0.1,0.6,0.1,1c0.8-2.1,1.7-4.3,2.7-6.6C5.6,80,4.7,81.8,3.8,83.6z"/>
<path class="st0" d="M23,116.5c4.1,0,9.1-0.4,14.8-1.3c-8.4,0.9-15.5,0.8-21.2-0.5c-0.4,0-0.9,0-1.3,0c0.3,0.3,0.4,0.6,0.6,0.9
	c0.9,0.3,1.9,0.6,3,0.9C20.1,116.4,21.5,116.5,23,116.5z"/>
<path class="st0" d="M15.8,115.5c0.1,0.3,0.3,0.4,0.4,0.6c0.8,0.1,1.7,0.3,2.6,0.3C17.7,116.1,16.8,115.7,15.8,115.5z"/>
<path class="st0" d="M33,113c7.8-1.4,16.4-3.9,25.6-7c-1.3-0.5-2.5-1.2-3.6-1.8c-9.8,3.1-18.4,5.3-25.5,6.5
	c-6.3,1.4-11.3,2.1-15.3,2.2l0,0C19,114,25.4,113.9,33,113z"/>
<path class="st0" d="M160.5,61.3c25.5-12.9,52.9-27.9,81.5-44.4c-1-0.5-1.9-1-3-1.6c-27.6,15.8-54,30.1-78.5,42.7V61.3z"/>
<path class="st0" d="M100.9,86.5c-0.4,1.3-0.9,2.5-1.6,3.8c9.1-3.9,18.1-8,26.8-12c3.8-1.8,7.6-3.6,11.5-5.6c0-1-0.1-1.9-0.3-3
	c-4.3,2.1-8.4,4-12.4,6C116.6,79.6,108.6,83.2,100.9,86.5z"/>
<path class="st0" d="M7.4,81.7c-1.2,2.3-2.2,4.4-3,6.5c0.1,0.6,0.3,1.4,0.4,2.1c1.6-2.8,3.6-5.8,6-9.1C22,63.6,44.9,39,77.6,9.4
	c-1.3-0.1-2.6-0.3-3.9-0.3C36,43.4,16.7,66.3,7.4,81.7z"/>
<path class="st0" d="M4.3,87.4c0,0.3,0.1,0.5,0.1,0.8c0.8-2.1,1.8-4.3,3-6.5C6.2,83.6,5.2,85.6,4.3,87.4z"/>
<path class="st0" d="M18,114.7c4.4,0,9.4-0.6,15-1.7c-7.6,1-14,1-18.9,0c0.3,0.4,0.5,0.8,0.8,1.3c0.5,0.1,1,0.3,1.6,0.4
	C17,114.6,17.5,114.7,18,114.7z"/>
<path class="st0" d="M14.9,114.2c0.1,0.1,0.1,0.3,0.3,0.4c0.4,0,0.9,0,1.3,0C15.9,114.4,15.4,114.3,14.9,114.2z"/>
<path class="st0" d="M102.5,79.4c-0.1,1.2-0.3,2.2-0.5,3.4c6.5-3.1,13.3-6.3,20.6-10c4.7-2.3,9.4-4.8,14.2-7.2
	c-0.1-0.9-0.4-1.9-0.5-2.8c-5,2.6-10.1,5.2-15,7.6C114.8,73.4,108.4,76.5,102.5,79.4z"/>
<path class="st0" d="M10.7,81.2c-2.5,3.8-4.3,7.1-5.7,10.2c0.1,0.5,0.3,1,0.4,1.6c1.8-2.7,4-5.7,6.6-8.9
	c12.4-17.1,37-41.8,71.7-71.6c0.8-0.6,1.4-1.3,2.2-1.8c-1.2-0.3-2.3-0.5-3.5-0.8c-0.1,0.1-0.4,0.3-0.5,0.4
	C55.1,33.4,25.9,60.5,10.7,81.2z"/>
<path class="st0" d="M29.4,110.8c6.5-1.6,14.5-3.9,24.1-7.4c-0.9-0.6-1.8-1.3-2.7-1.9c-9.4,3.4-17,5.6-23,7
	c-5.7,1.7-10.6,2.7-14.5,3.1c0,0,0,0,0,0.1C17.5,112.1,22.9,111.8,29.4,110.8z"/>
<path class="st0" d="M160.5,53c22.5-12,46.7-25.6,71.8-40.4c-1.2-0.4-2.3-0.8-3.6-1.2c-23.9,14-46.7,26.8-68.3,38.3V53H160.5z"/>
<path class="st0" d="M4.8,90.2c0.1,0.4,0.3,0.9,0.3,1.3c1.3-3.1,3.2-6.6,5.7-10.2C8.4,84.4,6.3,87.4,4.8,90.2z"/>
<path class="st0" d="M13.3,111.6c0.3,0.4,0.5,0.9,0.9,1.3c4,0,8.9-0.6,15.3-2.2C22.9,111.8,17.5,112.1,13.3,111.6z"/>
<path class="st0" d="M102.5,72.6c0.1,1,0.1,2.1,0.3,3c5.3-2.7,10.7-5.6,16.4-8.5c5.3-2.8,10.7-5.7,16.3-8.7
	c-0.3-0.9-0.5-1.8-0.8-2.7c-5.7,3.1-11.3,6.1-16.8,8.9C112.4,67.5,107.3,70.2,102.5,72.6z"/>
<path class="st0" d="M160.5,44.6c19-10.6,39.2-22.3,60.2-34.8c-1.6-0.3-3-0.4-4.5-0.5c-19.4,11.5-37.9,22.3-55.6,32.1L160.5,44.6
	L160.5,44.6z"/>
<path class="st0" d="M12,84.2c-2.7,3.8-4.8,7.1-6.3,10.1c0.1,0.5,0.3,1,0.4,1.6c1.4-1.9,3.2-4,5.2-6.3c9.8-12.8,31.2-34.7,76-71.3
	c2.1-1.7,4.1-3.4,6.2-5c-1-0.4-2.1-0.8-3.1-1c-1.7,1.3-3.2,2.7-4.9,4C58.1,38.5,28,64.7,12,84.2z"/>
<path class="st0" d="M27.7,108.5c6.2-1.8,13.5-4.5,21.9-7.9c-0.8-0.6-1.6-1.4-2.2-2.2c-8.3,3.4-15.1,5.7-20.6,7.4
	c-6.2,2.3-10.9,3.8-14.4,4.4c0,0,0,0,0,0.1C16.1,110.4,21,109.9,27.7,108.5z"/>
<path class="st0" d="M5.4,93.1c0.1,0.4,0.3,0.8,0.3,1.2c1.6-3,3.6-6.3,6.3-10.1C9.5,87.4,7.3,90.4,5.4,93.1z"/>
<path class="st0" d="M12.4,110.3c0.3,0.4,0.5,0.9,0.8,1.3c3.9-0.4,8.8-1.4,14.5-3.1C21,109.9,16.1,110.4,12.4,110.3z"/>
<path class="st0" d="M14.1,90.2c5.6-6.1,14-14.4,26.7-25.5c0.9-2.3,1.9-4.4,3.4-6.5C30,70.4,18.9,80.9,11.5,89.3
	c-2.2,2.8-3.8,5.2-4.9,7.2c0.1,0.4,0.3,0.6,0.4,1C8.7,95.7,11,93.2,14.1,90.2z"/>
<path class="st0" d="M46.5,97.4c-0.6-0.8-1.3-1.4-1.8-2.3c-9.3,4.3-17.1,7.5-23.4,9.7c-4.1,1.7-7.2,3-9.8,3.8c0,0.1,0.1,0.1,0.1,0.3
	c3.4-0.3,8.3-1,15.1-3.1C32.1,103.7,38.6,101,46.5,97.4z"/>
<path class="st0" d="M64.4,44.8c7.8-6.3,16.6-13.3,26.4-21.1c3.2-2.5,6.5-5,9.7-7.5c-0.9-0.5-1.8-0.9-2.7-1.3
	C82.9,26.3,69.5,37.2,57.5,47C59.7,46,62,45.2,64.4,44.8z"/>
<path class="st0" d="M101.8,69.1c4.4-2.3,8.9-4.9,13.7-7.5c5.7-3.2,11.6-6.5,17.6-10c-0.4-0.9-0.6-1.7-1-2.6
	c-11,6.2-21.2,12-30.9,17.2C101.3,67.2,101.6,68.2,101.8,69.1z"/>
<path class="st0" d="M160.5,32.7v3.2C174.9,27.5,190,18.4,205.6,9h-5.3C186.5,17.4,173.1,25.3,160.5,32.7z"/>
<path class="st0" d="M11.7,108.9c0.3,0.4,0.5,0.9,0.8,1.3c3.5-0.8,8.2-2.1,14.4-4.4C19.9,107.8,15.1,108.6,11.7,108.9z"/>
<path class="st0" d="M6.2,95.7c0.1,0.3,0.1,0.6,0.3,0.9c1.2-2.1,2.8-4.4,4.9-7.2C9.3,91.7,7.6,93.7,6.2,95.7z"/>
<path class="st0" d="M184.7,9c-8.3,5-16.3,10-24.2,14.8V27c9.6-5.8,19.4-11.8,29.5-18.1h-5.3V9z"/>
<path class="st0" d="M44,94c-0.5-0.8-1-1.6-1.4-2.3c-9.1,4.7-15.9,7.9-21.2,10.2c-4.5,2.3-7.9,4-10.6,5.2c0.1,0.3,0.3,0.5,0.4,0.8
	c2.7-0.5,6.1-1.4,10.2-3C27,102.4,34.3,99,44,94z"/>
<path class="st0" d="M70,44.2c0.1,0,0.4,0,0.5,0c1.3,0,2.6,0.1,3.8,0.3c10-7.6,20.8-15.8,32.7-24.6c-0.8-0.5-1.7-1-2.6-1.6
	c-4,3-7.9,5.8-11.8,8.7C84.5,33.2,76.9,38.9,70,44.2z"/>
<path class="st0" d="M38.8,72.4c0.1-1.4,0.4-2.8,0.8-4.3C28,77.6,19.8,84.8,14,90.2c-3.1,3.5-5.4,6.2-7,8.4c0.1,0.4,0.3,0.6,0.4,1
	c1.7-1.6,3.9-3.5,6.6-5.8C19.9,88.3,28.2,81.1,38.8,72.4z"/>
<path class="st0" d="M98.6,60.6c0.4,0.8,0.9,1.7,1.3,2.5c3.9-2.2,7.9-4.5,12-7c6-3.5,12-7.1,18.2-10.7c-0.4-0.8-0.9-1.7-1.3-2.5
	c-5.7,3.4-11.4,6.7-16.7,10C107.4,55.6,102.9,58.1,98.6,60.6z"/>
<path class="st0" d="M11.1,107.8c0.1,0.3,0.3,0.5,0.4,0.8c2.6-0.8,5.7-1.9,9.8-3.8C17.2,106.3,13.9,107.3,11.1,107.8z"/>
<path class="st0" d="M6.9,97.7c0.1,0.4,0.3,0.6,0.4,1c1.6-2.2,3.8-4.9,7-8.4C11,93.2,8.7,95.7,6.9,97.7z"/>
<path class="st0" d="M78.5,45.2c1.2,0.3,2.2,0.6,3.4,1c9.6-6.9,19.9-14.2,31.1-22.1c-0.8-0.6-1.6-1.2-2.3-1.8
	c-4.8,3.4-9.6,6.7-14.2,10.1C90.1,36.9,84.1,41.2,78.5,45.2z"/>
<path class="st0" d="M169.6,9c-3.1,1.9-6.1,3.9-9.1,5.7v3.2c4.7-3,9.4-6,14.4-9.1h-5.3V9z"/>
<path class="st0" d="M41.9,90.5c-0.4-0.9-0.8-1.7-1.2-2.6c-8.3,4.8-15.3,8.7-20.8,11.6c-4.3,2.6-7.5,4.5-10,6
	c0.1,0.3,0.3,0.5,0.4,0.6c2.6-0.8,6.1-2.1,11-4.3C26.5,99.2,33.3,95.4,41.9,90.5z"/>
<path class="st0" d="M96.8,57.8c3.8-2.3,7.6-4.7,11.6-7.1c6-3.6,12-7.4,18.2-11.4c-0.5-0.8-1-1.6-1.6-2.3
	c-10.7,6.6-20.7,12.8-30,18.5C95.6,56.2,96.1,57,96.8,57.8z"/>
<path class="st0" d="M38.6,78.1c0-0.5,0-1.2,0-1.7c0-0.6,0-1.2,0-1.8c-11.1,8.4-19,14.6-24.5,19.3c-2.6,2.5-4.8,4.7-6.3,6.6
	c0.1,0.4,0.3,0.6,0.4,1c1.9-1.6,4.5-3.4,7.8-5.7C21.6,91,29.2,85.1,38.6,78.1z"/>
<path class="st0" d="M10.2,106.2c0.1,0.3,0.3,0.5,0.4,0.9c2.6-1.2,6.1-2.8,10.6-5.2C16.3,104.1,12.8,105.4,10.2,106.2z"/>
<path class="st0" d="M14.1,93.9c-2.7,2.3-4.9,4.3-6.6,5.8c0.1,0.3,0.1,0.5,0.3,0.6C9.3,98.5,11.5,96.3,14.1,93.9z"/>
<path class="st0" d="M40.2,86.6c-0.3-0.9-0.6-1.8-0.8-2.8c-6.5,4.1-12.3,7.8-17.2,10.9c4.8-3.4,10.5-7.4,17.1-11.9
	c-0.3-1-0.4-2.1-0.5-3.1c-4,2.7-7.6,5.3-11,7.6c-4.7,3.2-8.5,6-11.8,8.3c-3.1,2.6-5.6,4.8-7.5,6.5c0.4,0.8,0.6,1.6,1,2.3
	c2.6-1.2,6.1-2.8,10.4-5.2C25,96.3,31.7,92.2,40.2,86.6z"/>
<path class="st0" d="M92.7,53c3.9-2.5,7.9-5.2,12.2-7.9c5.7-3.8,11.6-7.5,17.7-11.5c-0.6-0.8-1.2-1.4-1.8-2.1
	C110.1,38.4,100,44.9,90.6,51C91.2,51.7,91.9,52.3,92.7,53z"/>
<path class="st0" d="M85.4,47.8c0.9,0.5,1.8,1,2.7,1.6c9.4-6.3,19.5-13.2,30.1-20.4c-0.6-0.6-1.4-1.3-2.1-1.9
	c-5.4,3.8-10.9,7.4-16.2,10.9C95,41.3,90.2,44.6,85.4,47.8z"/>
<path class="st0" d="M9.6,104.6c0.1,0.3,0.3,0.5,0.4,0.8c2.5-1.4,5.7-3.4,10-6C15.7,101.8,12.2,103.4,9.6,104.6z"/>
<path class="st0" d="M8.2,101.5c0.1,0.3,0.3,0.5,0.4,0.9c1.9-1.8,4.4-4,7.5-6.5C12.7,98.1,10.2,99.9,8.2,101.5z"/>
<g>
	<path class="st1" d="M676.1,27c0,5.6-1.4,10.1-4.1,13.3c-2.8,3.2-6.7,4.9-11.6,4.9c-4.9,0-8.8-1.7-11.5-4.9
		c-2.8-3.2-4.1-7.8-4.1-13.3s1.4-10.1,4.3-13.3s6.7-4.8,11.6-4.8c4.9,0,8.8,1.7,11.5,4.9S676.1,21.4,676.1,27z M647.2,27
		c0,5,1.2,8.9,3.4,11.8c2.2,2.7,5.4,4.1,9.7,4.1c4.3,0,7.5-1.4,9.7-4.1c2.2-2.7,3.4-6.6,3.4-11.8c0-5-1.2-8.9-3.4-11.6
		c-2.2-2.7-5.4-4-9.7-4c-4.1,0-7.5,1.4-9.7,4.1C648.3,18,647.2,21.9,647.2,27z"/>
	<path class="st1" d="M694.7,45.2c-4,0-7-1.6-8.8-4.5h-0.1l0.1,2.1c0,1.2,0.1,2.5,0.1,3.9v10h-2.6V18.4h2.1l0.5,3.8h0.1
		c1.8-2.8,4.7-4.3,8.7-4.3c3.5,0,6.2,1.2,8.2,3.5c1.8,2.3,2.8,5.7,2.8,10.2c0,4.3-1,7.6-3,10.1C700.8,43.9,698.1,45.2,694.7,45.2z
		 M694.7,43c2.7,0,4.8-1,6.2-3c1.4-1.9,2.2-4.8,2.2-8.4c0-7.8-2.8-11.5-8.4-11.5c-3.1,0-5.3,0.9-6.7,2.6c-1.4,1.7-2.2,4.4-2.2,8.3
		v0.8c0,4.1,0.6,7,2.1,8.8C689.3,42.1,691.6,43,694.7,43z"/>
	<path class="st1" d="M723.6,45.2c-3.8,0-6.7-1.2-8.9-3.5c-2.1-2.3-3.2-5.7-3.2-9.8c0-4.1,1-7.5,3.1-10.1c2.1-2.5,4.8-3.8,8.3-3.8
		c3.1,0,5.6,1,7.4,3.2c1.8,2.2,2.7,5,2.7,8.8V32H714c0,3.6,0.9,6.3,2.6,8.3c1.7,1.9,4,2.8,7.1,2.8c1.6,0,2.8-0.1,4-0.3
		c1.2-0.3,2.6-0.6,4.3-1.3v2.2c-1.4,0.6-2.8,1-4.1,1.3C726.4,45.1,725.1,45.2,723.6,45.2z M722.8,20c-2.6,0-4.5,0.8-6.1,2.5
		c-1.6,1.7-2.5,4-2.7,7.2h16.2c0-3.1-0.6-5.4-1.9-7.1C727.1,20.9,725.1,20,722.8,20z"/>
	<path class="st1" d="M758.1,44.7V27.6c0-2.6-0.5-4.5-1.7-5.8c-1.2-1.2-2.8-1.8-5.2-1.8c-3.1,0-5.4,0.8-6.9,2.3
		c-1.4,1.6-2.2,4.1-2.2,7.8v14.5h-2.3V18.3h2.1l0.5,3.6h0.1c1.7-2.7,4.8-4.1,9.1-4.1c6,0,8.9,3.2,8.9,9.6v17.2h-2.5V44.7z"/>
	<path class="st1" d="M809.4,26.7c0,6-1.6,10.4-4.7,13.5c-3.1,3-7.6,4.5-13.7,4.5h-8.4V9.4h9.6c5.7,0,10,1.4,12.8,4.4
		C807.8,16.7,809.4,21,809.4,26.7z M806.7,26.7c0-5-1.3-8.8-3.9-11.4s-6.3-3.9-11.3-3.9H785v30.9h5.8
		C801.3,42.5,806.7,37.2,806.7,26.7z"/>
	<path class="st1" d="M832.3,44.7l-0.6-4.1h-0.1c-1.3,1.7-2.7,2.8-4,3.6c-1.4,0.6-3,1-4.9,1c-2.6,0-4.5-0.6-6-1.9
		c-1.4-1.3-2.2-3.1-2.2-5.4c0-2.6,1-4.5,3.2-6c2.1-1.4,5.2-2.2,9.3-2.2l5-0.1v-1.9c0-2.5-0.5-4.4-1.6-5.7c-1-1.3-2.6-1.9-4.9-1.9
		c-2.5,0-4.9,0.6-7.5,2.1l-0.9-2.1c2.8-1.3,5.7-2.1,8.5-2.1c2.8,0,5,0.8,6.5,2.2c1.4,1.6,2.2,3.9,2.2,7v17.5h-2.1V44.7z M822.7,43
		c2.8,0,5-0.8,6.6-2.5c1.7-1.6,2.5-3.9,2.5-6.7v-2.6l-4.7,0.3c-3.8,0.1-6.3,0.8-7.9,1.7c-1.6,1-2.3,2.5-2.3,4.5c0,1.7,0.5,3,1.6,3.9
		C819.5,42.5,820.9,43,822.7,43z"/>
	<path class="st1" d="M847.8,43c1.6,0,2.8-0.1,4-0.4v1.9c-1.2,0.4-2.5,0.5-4,0.5c-2.3,0-4-0.6-5.2-1.8c-1.2-1.3-1.7-3.2-1.7-5.8v-17
		h-3.9v-1.4l3.9-1l1.2-6h1.3v6.3h7.8v2.1h-7.8v16.6c0,2.1,0.4,3.5,1,4.5C845.1,42.5,846.2,43,847.8,43z"/>
	<path class="st1" d="M872.9,44.7l-0.5-4.1h-0.1c-1.3,1.7-2.7,2.8-4,3.6c-1.4,0.6-3,1-4.9,1c-2.6,0-4.5-0.6-6-1.9
		c-1.4-1.3-2.2-3.1-2.2-5.4c0-2.6,1-4.5,3.2-6c2.1-1.4,5.2-2.2,9.3-2.2l5-0.1v-1.9c0-2.5-0.5-4.4-1.6-5.7c-1-1.3-2.6-1.9-4.9-1.9
		c-2.5,0-4.9,0.6-7.5,2.1l-0.9-2.1c2.8-1.3,5.7-2.1,8.5-2.1c2.8,0,5,0.8,6.5,2.2c1.4,1.6,2.2,3.9,2.2,7v17.5h-2.2V44.7z M863.3,43
		c2.8,0,5-0.8,6.6-2.5c1.7-1.6,2.5-3.9,2.5-6.7v-2.6l-4.5,0.1c-3.8,0.1-6.3,0.8-7.9,1.7c-1.6,1-2.3,2.5-2.3,4.5c0,1.7,0.5,3,1.6,3.9
		C860,42.5,861.4,43,863.3,43z"/>
</g>
<g>
	<path class="st2" d="M646.5,94.1V58.8h2.5v35.3H646.5z"/>
	<path class="st2" d="M676.2,94.1V77c0-2.6-0.5-4.5-1.7-5.8c-1.2-1.2-2.8-1.8-5.2-1.8c-3.1,0-5.4,0.8-6.9,2.3
		c-1.4,1.6-2.2,4.1-2.2,7.8V94H658V67.7h2.1l0.5,3.6h0.1c1.7-2.7,4.8-4.1,9.1-4.1c6,0,8.9,3.2,8.9,9.6V94h-2.5V94.1z"/>
	<path class="st2" d="M696.4,94.6c-3.8,0-6.7-1.2-8.8-3.5c-2.1-2.3-3.2-5.7-3.2-10c0-4.4,1.2-7.8,3.4-10.2c2.2-2.5,5.2-3.6,9.1-3.6
		c2.3,0,4.4,0.4,6.5,1.2l-0.6,2.1c-2.3-0.8-4.3-1.2-6-1.2c-3.2,0-5.7,1-7.4,3c-1.7,1.9-2.5,4.9-2.5,8.5c0,3.5,0.8,6.3,2.5,8.3
		c1.7,2.1,4,3,7,3c2.3,0,4.7-0.4,6.6-1.3v2.2C701.3,94.2,699.1,94.6,696.4,94.6z"/>
	<path class="st2" d="M711,67.9v17c0,2.6,0.5,4.5,1.7,5.8c1.2,1.2,2.8,1.8,5.2,1.8c3.1,0,5.4-0.8,6.9-2.3c1.4-1.6,2.2-4.1,2.2-7.8
		V67.9h2.3v26.3h-2.1l-0.4-3.6h-0.1c-1.7,2.7-4.8,4.1-9.1,4.1c-6,0-8.9-3.2-8.9-9.6V67.9H711z"/>
	<path class="st2" d="M747.1,67.3c3.6,0,6.5,1.2,8.3,3.5c1.8,2.3,2.8,5.7,2.8,10.1c0,4.4-1,7.8-3,10.1s-4.7,3.5-8.3,3.5
		c-1.8,0-3.5-0.4-5-1.2c-1.6-0.8-2.7-1.8-3.5-3.2h-0.3l-0.6,4H736V56.5h2.3v9.4c0,1.4,0,2.7-0.1,3.9l-0.1,2.1h0.1
		c1-1.6,2.2-2.7,3.6-3.5C743.4,67.7,745.2,67.3,747.1,67.3z M747.1,69.5c-3.1,0-5.3,0.9-6.6,2.7c-1.3,1.8-1.9,4.7-1.9,8.8v0.4
		c0,4,0.6,6.9,2.1,8.5c1.4,1.7,3.6,2.6,6.5,2.6s5-1,6.5-3c1.4-2.1,2.2-4.9,2.2-8.5C755.7,73.3,752.8,69.5,747.1,69.5z"/>
	<path class="st2" d="M781.2,94.1l-0.6-4.1h-0.1c-1.3,1.7-2.7,2.8-4,3.6c-1.4,0.6-3,1-4.9,1c-2.6,0-4.5-0.6-6-1.9
		c-1.4-1.3-2.2-3.1-2.2-5.4c0-2.6,1-4.5,3.2-6c2.1-1.4,5.2-2.2,9.3-2.2l5-0.1v-1.7c0-2.5-0.5-4.4-1.6-5.7c-1-1.3-2.6-1.9-4.9-1.9
		c-2.5,0-4.9,0.6-7.5,2.1l-0.9-2.1c2.8-1.3,5.7-2.1,8.5-2.1c2.8,0,5,0.8,6.5,2.2c1.4,1.6,2.2,3.9,2.2,7v17.5h-2.1V94.1z M771.5,92.4
		c2.8,0,5-0.8,6.6-2.5c1.7-1.6,2.5-3.9,2.5-6.7v-2.6l-4.5,0.1c-3.8,0.1-6.3,0.8-7.9,1.7c-1.6,1-2.3,2.5-2.3,4.5c0,1.7,0.5,3,1.6,3.9
		C768.2,92,769.6,92.4,771.5,92.4z"/>
	<path class="st2" d="M796.6,92.4c1.6,0,2.8-0.1,4-0.4V94c-1.2,0.4-2.5,0.5-4,0.5c-2.3,0-4-0.6-5.2-1.8c-1.2-1.3-1.7-3.2-1.7-5.8
		v-17h-3.9v-1.4l3.9-1l1.2-6h1.3v6.3h7.8v2.1h-7.8v16.6c0,2.1,0.4,3.5,1,4.5C794,92,795,92.4,796.6,92.4z"/>
	<path class="st2" d="M826.6,80.9c0,4.3-1,7.6-3.1,10.1c-2.1,2.5-4.9,3.6-8.5,3.6c-2.3,0-4.3-0.5-6.1-1.7c-1.8-1.2-3.1-2.7-4-4.8
		c-0.9-2.1-1.4-4.5-1.4-7.2c0-4.3,1-7.6,3.1-10c2.1-2.3,4.9-3.6,8.5-3.6s6.5,1.2,8.5,3.6C825.5,73.4,826.6,76.8,826.6,80.9z
		 M805.9,80.9c0,3.6,0.8,6.5,2.3,8.4c1.6,2.1,3.9,3,6.7,3s5.2-1,6.7-3c1.6-2.1,2.3-4.8,2.3-8.4c0-3.6-0.8-6.5-2.5-8.4
		c-1.6-1.9-3.9-3-6.7-3c-2.8,0-5.2,1-6.7,3C806.7,74.6,805.9,77.3,805.9,80.9z"/>
	<path class="st2" d="M843.3,67.3c1.2,0,2.3,0.1,3.6,0.4l-0.5,2.3c-1-0.3-2.2-0.4-3.4-0.4c-2.2,0-4,0.9-5.6,2.8
		c-1.6,1.9-2.2,4.3-2.2,7.2v14.5h-2.3V68h2.1l0.3,4.8h0.1c1-1.9,2.2-3.2,3.5-4C840,67.7,841.6,67.3,843.3,67.3z"/>
</g>
<g>
	<path class="st0" d="M665.7,143.7h-19.3v-35.3h19.3v2.3h-16.8V124h15.9v2.3h-15.9v15.1h16.8V143.7z"/>
	<path class="st0" d="M674.5,117.4v17c0,2.6,0.5,4.5,1.7,5.8c1.2,1.2,2.8,1.8,5.2,1.8c3.1,0,5.4-0.8,6.9-2.3
		c1.4-1.6,2.2-4.1,2.2-7.8v-14.5h2.3v26.3h-2.1l-0.4-3.6h-0.1c-1.7,2.7-4.8,4.1-9.1,4.1c-6,0-8.9-3.2-8.9-9.6v-17.2H674.5z"/>
	<path class="st0" d="M711.8,116.9c1.2,0,2.3,0.1,3.6,0.4l-0.5,2.3c-1-0.3-2.2-0.4-3.4-0.4c-2.2,0-4,0.9-5.6,2.8
		c-1.6,1.9-2.2,4.3-2.2,7.2v14.5h-2.3v-26.3h2.1l0.3,4.8h0.1c1-1.9,2.2-3.2,3.5-4C708.6,117.3,710,116.9,711.8,116.9z"/>
	<path class="st0" d="M741.3,130.5c0,4.3-1,7.6-3.1,10.1c-2.1,2.5-4.9,3.6-8.5,3.6c-2.3,0-4.3-0.5-6.1-1.7c-1.8-1.2-3.1-2.7-4-4.8
		c-0.9-2.1-1.4-4.5-1.4-7.2c0-4.3,1-7.6,3.1-10c2.1-2.3,4.9-3.6,8.5-3.6c3.6,0,6.5,1.2,8.5,3.6C740.3,123,741.3,126.2,741.3,130.5z
		 M720.6,130.5c0,3.6,0.8,6.5,2.3,8.4c1.6,2.1,3.9,3,6.7,3c2.8,0,5.2-1,6.7-3c1.6-2.1,2.3-4.8,2.3-8.4c0-3.6-0.8-6.5-2.5-8.4
		c-1.6-1.9-3.9-3-6.7-3s-5.2,1-6.7,3C721.4,124,720.6,126.9,720.6,130.5z"/>
	<path class="st0" d="M758.8,144.1c-4,0-7-1.6-8.8-4.5h-0.1l0.1,2.1c0,1.2,0.1,2.5,0.1,3.9v10h-2.3v-38.2h2.1l0.5,3.8h0.1
		c1.8-2.8,4.7-4.3,8.7-4.3c3.5,0,6.2,1.2,8.2,3.5c1.8,2.3,2.8,5.7,2.8,10.2c0,4.3-1,7.6-3,10.1C764.7,142.9,762.1,144.1,758.8,144.1
		z M758.6,142c2.7,0,4.8-1,6.2-3c1.4-1.9,2.2-4.8,2.2-8.4c0-7.8-2.8-11.5-8.4-11.5c-3.1,0-5.3,0.9-6.7,2.6c-1.4,1.7-2.2,4.4-2.2,8.3
		v0.8c0,4.1,0.6,7,2.1,8.8C753.3,141.1,755.5,142,758.6,142z"/>
	<path class="st0" d="M787.5,144.1c-3.8,0-6.7-1.2-8.9-3.5c-2.1-2.3-3.2-5.7-3.2-9.8c0-4.1,1-7.5,3.1-10.1c2.1-2.5,4.8-3.8,8.3-3.8
		c3.1,0,5.6,1,7.4,3.2c1.8,2.2,2.7,5,2.7,8.8v1.9h-18.9c0,3.6,0.9,6.3,2.6,8.3c1.7,1.9,4,2.8,7.1,2.8c1.6,0,2.8-0.1,4-0.3
		c1.2-0.3,2.6-0.6,4.3-1.3v2.2c-1.4,0.6-2.8,1-4.1,1.3C790.5,144.2,789.1,144.1,787.5,144.1z M786.9,119c-2.6,0-4.5,0.8-6.1,2.5
		c-1.6,1.7-2.5,4-2.7,7.2h16.2c0-3.1-0.6-5.4-1.9-7.1C791,119.9,789.2,119,786.9,119z"/>
</g>
</svg>
